<svg xmlns="http://www.w3.org/2000/svg" viewBox="0 0 18 25" fill="rgb(134,134,139)" style=""> <title>magnifyingglass_reduced@1x</title> <g transform="translate(0, -2.75)"> <rect width="1" height="25" fill="none"/> <path d="M17.512,20.113l-4.786-4.788a7.068,7.068,0,1,0-.777.778l4.785,4.788a.55.55,0,1,0,.777-.777ZM1.427,10.75A5.946,5.946,0,1,1,7.373,16.7,5.957,5.957,0,0,1,1.427,10.75Z"/> </g> </svg>
<?xml version="1.0" ?><svg height="32px" version="1.1" viewBox="0 0 32 32" width="32px" xmlns="http://www.w3.org/2000/svg" xmlns:sketch="http://www.bohemiancoding.com/sketch/ns" xmlns:xlink="http://www.w3.org/1999/xlink"><title/><desc/><defs/><g fill="none" fill-rule="evenodd" id="Page-1" stroke="none" stroke-width="1"><g fill="#929292" id="icon-111-search"><path d="M19.4271164,21.4271164 C18.0372495,22.4174803 16.3366522,23 14.5,23 C9.80557939,23 6,19.1944206 6,14.5 C6,9.80557939 9.80557939,6 14.5,6 C19.1944206,6 23,9.80557939 23,14.5 C23,16.3366522 22.4174803,18.0372495 21.4271164,19.4271164 L27.0119176,25.0119176 C27.5621186,25.5621186 27.5575313,26.4424687 27.0117185,26.9882815 L26.9882815,27.0117185 C26.4438648,27.5561352 25.5576204,27.5576204 25.0119176,27.0119176 L19.4271164,21.4271164 L19.4271164,21.4271164 Z M14.5,21 C18.0898511,21 21,18.0898511 21,14.5 C21,10.9101489 18.0898511,8 14.5,8 C10.9101489,8 8,10.9101489 8,14.5 C8,18.0898511 10.9101489,21 14.5,21 L14.5,21 Z" id="search"/></g></g></svg>